<?xml version="1.0" encoding="utf-8" ?>
<svg xmlns="http://www.w3.org/2000/svg" xmlns:xlink="http://www.w3.org/1999/xlink" width="1024" height="1024">
	<path fill="white" d="M0 0L1024 0L1024 1024L0 1024L0 0Z"/>
	<path fill="#343D95" d="M86.1547 898.89L86.4314 898.93L86.7613 900.444C87.3368 900.731 87.4294 900.814 88.156 900.958C91.262 901.573 95.7105 900.836 98.9878 900.839L140.17 900.755L285.985 900.9L836.526 901.113L921.072 901.086C927.35 901.083 948.084 901.981 952.688 900.687C953.215 900.539 953.437 900.41 953.962 900.172C953.543 907.701 953.896 915.441 953.891 922.991L953.795 966.979L86.0223 966.722L86.1547 898.89Z"/>
	<path fill="#2A2626" d="M74.5692 523.085C68.9158 515.018 62.4911 507.628 57.2484 499.243C39.7838 471.309 27.0709 443.724 16.915 412.512C14.2801 404.414 11.5336 396.313 9.59176 388.016C7.64655 379.705 6.41025 371.173 5.07022 362.745C1.54092 340.547 0.111047 319.362 2.69945 296.966Q2.98185 294.464 3.31423 291.969Q3.64662 289.473 4.02887 286.985Q4.41111 284.496 4.84306 282.016Q5.27502 279.536 5.7565 277.065Q6.23798 274.594 6.7688 272.133Q7.29963 269.672 7.87958 267.222Q8.45953 264.772 9.08837 262.334Q9.71722 259.897 10.3947 257.472Q11.0722 255.047 11.7981 252.636Q12.5239 250.226 13.2979 247.83Q14.0718 245.434 14.8935 243.055Q15.7152 240.675 16.5844 238.312Q17.4535 235.949 18.3698 233.605Q19.286 231.26 20.249 228.934Q21.212 226.607 22.2213 224.301Q23.2306 221.995 24.2859 219.709Q25.3412 217.423 26.4419 215.159Q27.5427 212.895 28.6886 210.653Q29.8344 208.411 31.0249 206.193Q32.2154 203.975 33.45 201.781Q34.6846 199.587 35.9628 197.418Q37.2411 195.249 38.5625 193.106Q39.8839 190.963 41.2479 188.847Q42.6119 186.731 44.0179 184.642Q45.424 182.554 46.8715 180.494Q48.3191 178.435 49.8076 176.404Q51.2961 174.374 52.8248 172.373Q54.3536 170.373 55.9221 168.404Q57.4907 166.435 59.0982 164.497Q60.7058 162.56 62.3519 160.655Q63.9979 158.75 65.6817 156.878Q67.3655 155.007 69.0864 153.169C80.3573 141.111 92.8557 130.338 105.78 120.097C134.516 97.3278 165.973 81.8114 200.463 69.882C207.631 67.403 214.816 64.7121 222.12 62.661C300.198 40.7339 390.277 43.196 461.047 86.0616Q472.374 92.9986 483.135 100.785Q493.896 108.571 504.027 117.161C510.606 122.826 516.579 129.535 523.476 134.77C525.494 136.301 526.818 136.937 529.349 137.204C529.532 137.224 529.715 137.238 529.899 137.255C537.151 128.064 547.037 122.315 558.764 120.972Q559.761 120.862 560.763 120.801Q561.765 120.74 562.768 120.729Q563.771 120.718 564.774 120.757Q565.777 120.795 566.776 120.884Q567.776 120.972 568.77 121.11Q569.763 121.247 570.749 121.434Q571.735 121.621 572.711 121.857Q573.686 122.092 574.648 122.376Q575.611 122.66 576.558 122.991Q577.505 123.322 578.435 123.699Q579.365 124.077 580.275 124.5Q581.184 124.923 582.072 125.391Q582.96 125.859 583.823 126.37Q584.687 126.881 585.524 127.435Q586.361 127.988 587.169 128.582Q587.978 129.176 588.756 129.81C597.648 137.012 603.002 146.787 604.257 158.123L676.57 157.955C678.425 146.166 683.715 135.611 693.518 128.399Q694.36 127.788 695.232 127.22Q696.103 126.652 697.002 126.127Q697.9 125.603 698.823 125.124Q699.747 124.645 700.693 124.212Q701.639 123.779 702.605 123.394Q703.571 123.008 704.556 122.671Q705.54 122.334 706.539 122.046Q707.539 121.759 708.552 121.521Q709.565 121.283 710.588 121.095Q711.611 120.908 712.643 120.771Q713.674 120.635 714.711 120.55Q715.748 120.465 716.787 120.431Q717.827 120.397 718.867 120.415Q719.907 120.433 720.945 120.502Q721.983 120.572 723.017 120.692Q724.05 120.813 725.076 120.985Q726.073 121.152 727.06 121.367Q728.047 121.582 729.023 121.846Q729.999 122.109 730.96 122.419Q731.922 122.73 732.867 123.087Q733.813 123.444 734.74 123.847Q735.667 124.25 736.573 124.697Q737.479 125.145 738.362 125.636Q739.245 126.127 740.103 126.661Q740.961 127.195 741.792 127.77Q742.623 128.345 743.425 128.96Q744.227 129.574 744.998 130.228Q745.769 130.881 746.507 131.571Q747.246 132.261 747.949 132.987Q748.653 133.712 749.32 134.471Q749.988 135.23 750.617 136.02Q751.247 136.811 751.837 137.631C756.253 143.872 758.272 150.618 759.178 158.135C781.044 158.125 803.326 157.228 825.157 158.217C825.699 165.477 825.485 172.834 825.486 180.113L825.482 214.833L825.497 321.954L825.523 646.345C831.089 649.481 836.758 652.506 841.802 656.456C857.523 668.768 867.828 688.925 873.081 707.824C881.026 736.407 878.609 767.412 879.339 796.761Q880.599 847.699 882.964 898.598L927.577 898.577C935.076 898.567 942.89 898.127 950.364 898.683C951.45 898.764 952.645 898.861 953.483 899.644C953.656 899.807 953.802 899.996 953.962 900.172C953.437 900.41 953.215 900.539 952.688 900.687C948.084 901.981 927.35 901.083 921.072 901.086L836.526 901.113L285.985 900.9L140.17 900.755L98.9878 900.839C95.7105 900.836 91.262 901.573 88.156 900.958C87.4294 900.814 87.3368 900.731 86.7613 900.444L86.4314 898.93L86.1547 898.89C85.2525 895.663 83.8882 892.509 82.9586 889.256C80.1278 879.352 77.935 869.027 76.3257 858.855C67.6198 803.826 76.176 748.117 80.04 693.073Q81.3289 672.073 81.5245 651.034C72.3556 645.021 63.7975 639.025 58.9313 628.844C54.9944 620.607 53.3367 611.643 53.4715 602.544C53.8257 578.633 66.5044 545.922 74.5692 523.085Z"/>
	<path fill="#F1BB8C" d="M209.967 788.546C219.869 791.46 229.383 792.207 239.653 792.068L238.503 792.932Q223.881 792.864 209.26 792.99C209.284 791.337 209.428 790.113 209.967 788.546Z"/>
	<path fill="#F28A20" d="M646.383 700.375C647.08 703.491 639.951 769.808 639.016 778.15C638.29 775.088 637.736 771.989 637.144 768.9L629.781 726.17C633.889 716.769 640.306 708.579 646.383 700.375Z"/>
	<path fill="#6375B7" d="M657.444 884.971C680.648 884.576 703.929 884.968 727.14 884.998C741.379 885.016 756.214 884.204 770.383 885.249C772.634 885.415 775.384 885.817 776.778 887.847C777.552 888.974 777.874 890.185 777.709 891.54C777.359 894.421 775.941 896.016 773.682 897.669C766.849 899.239 749.298 898.29 741.453 898.329L654.983 898.478L658.573 895.833C658.425 892.16 658.011 888.6 657.444 884.971Z"/>
	<path fill="white" d="M681.061 852.615C691.912 851.621 703.32 852.411 714.222 852.536L714.043 882.431L687.044 882.406L656.895 882.268Q654.847 873.649 653.744 864.859C662.623 860.025 671.175 855.086 681.061 852.615Z"/>
	<path fill="white" d="M766.731 602.321C766.793 602.493 766.866 602.663 766.918 602.839C768.641 608.582 771.52 643.384 770.828 649.548C770.515 652.342 769.666 654.919 768.282 657.368C765.365 662.528 760.264 666.3 754.573 667.862C746.974 669.948 740.13 667.993 733.528 664.181Q732.933 663.747 732.349 663.298C723.867 656.722 724.624 646.222 723.407 636.583C732.778 636.685 740.195 635.08 748.31 630.177C759.3 623.538 763.681 614.424 766.731 602.321Z"/>
	<path fill="white" d="M560.286 123.167C569.983 122.266 579.954 125.709 587.404 131.86C595.448 138.502 600.79 147.841 601.759 158.251L565.875 158.356C552.044 158.396 538.05 158.781 524.238 158.165C525.76 150.467 528.285 143.523 533.26 137.346C539.972 129.014 549.779 124.374 560.286 123.167Z"/>
	<path fill="white" d="M713.933 123.17C714.097 123.149 714.261 123.123 714.427 123.108Q715.365 123.019 716.307 122.976Q717.248 122.932 718.191 122.934Q719.133 122.936 720.075 122.984Q721.016 123.031 721.954 123.124Q722.892 123.216 723.824 123.354Q724.757 123.492 725.681 123.675Q726.606 123.857 727.521 124.084Q728.436 124.312 729.338 124.582Q730.241 124.853 731.13 125.167Q732.018 125.481 732.891 125.838Q733.763 126.195 734.618 126.593Q735.472 126.991 736.306 127.43Q737.14 127.869 737.952 128.348Q738.764 128.826 739.552 129.344Q740.34 129.861 741.102 130.416Q741.864 130.97 742.598 131.561C751.111 138.449 755.564 147.362 756.76 158.145L722.25 158.139L679.005 158.042C680.016 150.829 682.353 144.539 686.743 138.688C693.564 129.596 702.791 124.722 713.933 123.17Z"/>
	<path fill="#D6E5F4" d="M247.343 123.654C247.581 123.624 247.818 123.592 248.056 123.565Q249.028 123.455 250.005 123.394Q250.981 123.333 251.959 123.321Q252.938 123.309 253.915 123.347Q254.893 123.384 255.868 123.471Q256.842 123.557 257.811 123.692Q258.78 123.827 259.741 124.011Q260.702 124.195 261.653 124.427Q262.603 124.659 263.541 124.938Q264.478 125.217 265.401 125.543Q266.323 125.869 267.228 126.241Q268.133 126.613 269.018 127.03Q269.903 127.447 270.766 127.908Q271.629 128.369 272.468 128.873Q273.307 129.377 274.119 129.922Q274.932 130.467 275.715 131.053Q276.499 131.638 277.253 132.262C285.486 138.962 290.749 147.77 291.84 158.358C280.661 158.651 269.435 158.496 258.25 158.521L213.051 158.46C214.34 151.413 216.448 145.131 220.73 139.297C227.306 130.338 236.49 125.375 247.343 123.654Z"/>
	<path fill="#D6E5F4" d="M406.388 123.205C415.251 122.928 423.806 124.941 431.019 130.246C440.626 137.312 445.435 146.834 447.256 158.396L411.125 158.428L368.728 158.392C369.881 150.164 372.707 143.309 378.081 136.915C385.517 128.07 395.061 124.114 406.388 123.205Z"/>
	<path fill="#A2B4DC" d="M212.941 160.908C239.29 160.534 265.704 160.965 292.059 160.935C291.422 171.544 287.787 179.465 280.634 187.23Q280.011 187.841 279.363 188.425Q278.715 189.009 278.042 189.565Q277.369 190.121 276.674 190.648Q275.978 191.175 275.26 191.672Q274.543 192.168 273.805 192.634Q273.067 193.099 272.309 193.533Q271.552 193.967 270.777 194.368Q270.002 194.769 269.211 195.136Q268.419 195.504 267.613 195.837Q266.806 196.171 265.986 196.47Q265.167 196.768 264.335 197.032Q263.503 197.296 262.66 197.523Q261.818 197.751 260.967 197.943Q260.115 198.135 259.257 198.29Q258.398 198.445 257.533 198.564Q256.669 198.682 255.8 198.764C245.421 199.675 235.001 196.078 227.053 189.415C218.242 182.029 213.869 172.208 212.941 160.908Z"/>
	<path fill="#A2B4DC" d="M368.967 160.829L447.437 160.849C446.293 171.251 443.145 179.616 436.015 187.404C428.939 194.492 419.213 198.422 409.246 198.905Q408.306 198.952 407.366 198.953Q406.425 198.954 405.485 198.909Q404.545 198.863 403.609 198.772Q402.672 198.681 401.742 198.544Q400.811 198.406 399.888 198.224Q398.965 198.041 398.052 197.813Q397.139 197.586 396.239 197.314Q395.338 197.041 394.452 196.725Q393.566 196.409 392.696 196.05Q391.827 195.691 390.976 195.289Q390.125 194.888 389.295 194.445Q388.464 194.003 387.657 193.52Q386.85 193.037 386.067 192.515Q385.284 191.993 384.528 191.433Q383.771 190.873 383.044 190.277Q382.316 189.681 381.618 189.05C373.276 181.459 369.568 171.895 368.967 160.829Z"/>
	<path fill="#D6E5F4" d="M534.31 160.754Q568.077 160.493 601.844 160.634C601.715 162.532 601.608 164.457 601.311 166.337C599.599 177.169 593.396 186.107 584.695 192.498C578.67 196.256 572.354 198.748 565.195 199.136Q564.248 199.19 563.299 199.199Q562.35 199.207 561.402 199.168Q560.454 199.13 559.509 199.046Q558.564 198.961 557.624 198.83Q556.684 198.7 555.752 198.523Q554.82 198.347 553.897 198.125Q552.975 197.904 552.064 197.637Q551.154 197.37 550.257 197.06Q549.361 196.749 548.48 196.395Q547.6 196.04 546.738 195.644Q545.876 195.247 545.035 194.808Q544.194 194.37 543.375 193.891Q542.556 193.412 541.761 192.893Q540.966 192.375 540.198 191.818Q539.43 191.261 538.689 190.668Q537.949 190.074 537.239 189.445C528.878 181.936 524.836 171.824 524.279 160.761L534.31 160.754Z"/>
	<path fill="#D6E5F4" d="M678.767 160.611C704.804 160.578 730.981 160.039 757.003 160.774C756.188 171.883 753.134 179.227 745.991 187.773Q745.365 188.422 744.709 189.041Q744.053 189.66 743.369 190.247Q742.685 190.835 741.974 191.39Q741.263 191.944 740.527 192.465Q739.791 192.986 739.032 193.472Q738.272 193.958 737.49 194.408Q736.709 194.858 735.907 195.271Q735.106 195.684 734.285 196.059Q733.465 196.434 732.629 196.77Q731.792 197.106 730.94 197.402Q730.089 197.699 729.224 197.955Q728.359 198.212 727.484 198.427Q726.608 198.643 725.723 198.817Q724.839 198.992 723.947 199.124Q723.055 199.257 722.158 199.348Q721.26 199.439 720.36 199.488Q719.36 199.534 718.36 199.531Q717.359 199.528 716.36 199.476Q715.36 199.423 714.365 199.322Q713.37 199.22 712.38 199.07Q711.391 198.919 710.41 198.72Q709.43 198.521 708.46 198.273Q707.491 198.026 706.534 197.731Q705.578 197.437 704.638 197.095Q703.697 196.754 702.774 196.366Q701.852 195.979 700.949 195.546Q700.047 195.114 699.167 194.637Q698.287 194.161 697.432 193.641Q696.577 193.122 695.748 192.561Q694.919 192 694.119 191.399Q693.319 190.798 692.55 190.159Q691.78 189.519 691.043 188.842C682.757 181.239 679.244 171.638 678.767 160.611Z"/>
	<path fill="white" d="M694.416 537.673C704.548 546.332 711.041 555.907 725.576 557.397C735.804 558.445 736.503 552.863 743.285 547.799C745.48 546.16 747.952 545.584 750.646 546.049C761.241 547.88 759.084 553.264 763.426 559.349C765.468 560.11 767.921 558.561 770.067 558.483C772.287 558.402 774.166 559.37 775.677 560.957C778.039 563.438 779.926 567.389 779.789 570.87C779.667 573.935 778.063 576.679 775.829 578.712C772.255 581.965 768.695 582.716 764.03 582.487C764.553 591.891 765.22 599.987 762.67 609.145C758.582 618.437 753.708 625.054 744.495 629.841C736.206 634.148 726.799 636.097 717.749 633.016C708.248 629.781 702.101 621.526 698.046 612.748C688.006 591.014 686.07 560.099 694.416 537.673Z"/>
	<path fill="#F28A20" d="M103.968 795.07Q201.115 795.725 298.262 795.235C296.131 803.783 294.198 812.39 292.173 820.964L290.017 827.586C267.861 827.91 245.666 827.623 223.505 827.606L111.28 827.547C108.519 816.831 106.288 805.891 103.968 795.07Z"/>
	<path fill="#D6E5F4" d="M81.5245 651.034C88.849 654.92 98.5701 658.68 101.004 667.452C103.787 677.48 95.4583 691.072 92.491 700.638C82.1764 733.888 99.1291 759.74 127.257 776.806C140.983 785.135 156.376 789.348 171.95 792.633C163.656 793.198 155.253 792.924 146.941 792.889Q124.043 792.685 101.145 792.813C103.026 805.062 106.293 817.496 109.281 829.533C111.385 829.764 113.486 830.025 115.602 830.122C120.362 852.797 125.364 875.46 129.784 898.201C123.21 898.202 89.9608 897.221 86.4314 898.93L86.1547 898.89C85.2525 895.663 83.8882 892.509 82.9586 889.256C80.1278 879.352 77.935 869.027 76.3257 858.855C67.6198 803.826 76.176 748.117 80.04 693.073Q81.3289 672.073 81.5245 651.034Z"/>
	<path fill="white" d="M118.234 830.043L207.281 829.972Q245.494 829.795 283.706 830.119C278.431 848.312 275.366 867.508 271.325 886.038L268.398 898.26L132.685 898.245C130.432 889.887 128.906 881.217 127.074 872.751C124.002 858.555 120.837 844.333 118.234 830.043Z"/>
	<path fill="#6375B7" d="M319.368 600.542L320.101 600.663C322.06 605.184 322.412 616.816 323.51 622.414C327.533 642.912 338.252 664.847 331.053 685.928C325.835 701.209 315.286 700.31 303.686 706.343C281.835 717.709 306.367 738.471 299.409 757.937C295.548 768.74 285.288 776.892 275.23 781.662C254.875 791.315 228.239 792.543 207.088 784.925C213.73 775.751 219.288 765.706 225.027 755.949L243.213 725.578C257.962 700.856 273.682 676.927 289.548 652.924C295.27 644.268 300.444 635.252 306.447 626.785L306.872 625.972C306.844 624.749 306.729 624.554 306.082 623.503L305.493 623.505C302.359 626.851 300.187 631.339 297.716 635.196Q292.102 643.87 286.358 652.458Q258.83 694.034 233.279 736.853C224.009 752.244 215.306 768.048 205.571 783.147C195.287 766.702 192.106 746.881 191.911 727.762C191.73 709.981 193.28 682.906 206.788 669.734C209.389 667.198 212.637 665.504 216.338 665.616C222.509 665.803 226.624 670.489 230.494 674.676C237.144 668.408 242.026 658.711 247.329 651.215C267.365 622.893 287.283 611.525 319.368 600.542Z"/>
	<path fill="#F28A20" d="M831.303 656.108C836.241 655.825 839.476 657.403 843.204 660.648C858.485 673.95 868.287 696.17 872.578 715.581C877.622 738.395 876.093 762.008 876.586 785.168L878.833 858.527C879.326 871.93 879.55 885.4 880.493 898.777C846.069 899.137 811.625 898.411 777.196 898.747Q777.864 898.037 778.487 897.287C780.785 894.477 780.623 892.192 780.234 888.728C779.641 887.433 778.849 885.978 777.853 884.951C776.663 883.724 775.282 883.182 773.629 882.883C767.217 881.725 759.893 882.384 753.355 882.379L716.597 882.368L716.691 852.595C749.636 852.442 782.737 853.45 815.657 852.501C816.852 836.777 815.892 820.369 815.854 804.582L815.721 713.678Q815.774 701.219 815.685 688.76C815.651 683.579 815.286 678.104 815.838 672.961C816.224 669.366 817.041 665.892 819.138 662.88C822.162 658.538 826.314 656.954 831.303 656.108Z"/>
	<path fill="#F6A921" d="M87.0655 497.747C133.565 517.579 174.65 560.407 195.572 606.004C200.276 601.731 205.019 597.804 211.524 596.788C217.695 595.824 223.684 597.892 228.566 601.636C242.158 612.062 245.575 630.67 247.672 646.603C242.093 654.638 236.805 663.366 230.713 670.962C227.059 667.132 223.036 663.579 217.521 663.008C213.539 662.596 209.823 664.073 206.759 666.548C193.235 677.471 191.115 699.614 189.645 715.649C184.621 703.501 180.752 690.92 175.586 678.785Q163.272 650.011 149.018 622.147Q134.763 594.283 118.635 567.46C116.256 563.434 107.286 547.418 103.978 545.504L103.199 545.72L103.124 546.228C102.896 547.778 112.342 561.646 113.789 564.003Q126.313 584.394 137.613 605.489Q148.913 626.583 158.948 648.308C169.589 670.963 180.467 694.048 187.721 718.044C189.725 724.675 189.386 731.269 189.804 738.095C190.825 754.734 195.277 772.87 204.898 786.647C206.604 787.198 208.288 787.913 209.967 788.546C209.428 790.113 209.284 791.337 209.26 792.99C186.231 793.286 162.357 790.035 141.017 781.026C127.726 775.414 114.571 766.503 105.304 755.357C72.2274 715.576 111.01 685.597 102.619 664.762C96.9004 650.564 69.0802 648.511 59.2575 623.7C55.9211 615.272 55.4022 605.68 56.2205 596.737C58.1425 575.735 66.1711 554.522 73.1217 534.717C77.4638 522.345 81.7965 509.763 87.0655 497.747Z"/>
	<path fill="#F28A20" d="M784.648 640.729C802.49 640.468 817.124 644.419 832.674 653.262C827.596 654.396 822.9 655.356 819.095 659.296Q818.584 659.831 818.116 660.402Q817.648 660.974 817.225 661.58Q816.801 662.186 816.426 662.823Q816.05 663.459 815.724 664.123Q815.398 664.786 815.123 665.472Q814.849 666.159 814.627 666.864Q814.406 667.569 814.239 668.289Q814.072 669.009 813.961 669.74C812.99 676.123 813.49 683.057 813.487 689.523L813.487 724.999L813.461 850.144C782.334 850.548 751.119 850.097 719.98 850.079C708.298 850.072 690.031 848.837 679.38 850.75C672.278 852.025 665.704 855.68 659.296 858.841L653.289 862.079L645.221 815.254C643.621 806.097 641.325 796.523 640.668 787.27C640.244 781.289 643.243 761.422 643.981 754.273C645.883 735.839 646.5 715.297 649.966 697.318C650.479 694.655 651.342 692.581 652.883 690.323C670.745 664.157 690.299 649.46 721.679 643.634C722.574 650.927 723.344 657.816 728.747 663.367C733.551 668.303 740.933 671.173 747.8 671.205Q748.456 671.205 749.112 671.173Q749.768 671.14 750.421 671.075Q751.074 671.009 751.723 670.911Q752.372 670.812 753.015 670.681Q753.658 670.55 754.294 670.387Q754.93 670.224 755.557 670.029Q756.184 669.834 756.8 669.608Q757.416 669.382 758.02 669.125Q758.624 668.868 759.214 668.581Q759.805 668.294 760.38 667.977Q760.955 667.661 761.513 667.316Q762.072 666.971 762.612 666.598Q763.153 666.226 763.674 665.826Q764.195 665.427 764.695 665.002Q765.195 664.577 765.673 664.127Q766.151 663.677 766.606 663.204C773.069 656.609 773.693 649.654 773.551 640.94C777.247 640.941 780.952 640.807 784.648 640.729Z"/>
	<path fill="#D6E5F4" d="M335.841 671.778C391.911 671.056 448.038 671.498 504.113 671.509L663.995 671.451C656.197 681.541 648.98 691.852 641.768 702.364C637.327 708.836 632.645 715.264 628.741 722.081C628.361 717.349 628.239 711.688 624.341 708.324C622.06 706.357 618.919 705.705 615.988 705.557C601.857 704.845 587.332 705.598 573.152 705.61L485.494 705.671L430.373 705.708C419.688 705.663 408.159 704.762 397.583 706.019C395.141 706.309 393.195 707.271 391.679 709.255C390.173 711.226 390.377 713.899 390.482 716.265C390.728 721.806 391.822 727.452 392.605 732.954Q394.673 748.173 397.22 763.32C399.868 779.563 401.953 795.889 404.673 812.118Q409.161 838.344 413.117 864.656C414.401 872.743 415.009 883.223 417.881 890.716C419.123 893.957 421.845 896.195 424.458 898.324C373.436 897.373 322.322 898.19 271.288 898.076Q275.677 877.006 280.287 855.984C282.138 847.386 283.638 838.523 286.274 830.126L292.012 829.336C295.46 818.523 299.704 804.056 300.84 792.919L238.503 792.932L239.653 792.068C259.146 791.583 280.036 785.677 293.792 771.176C299.392 765.271 303.899 756.787 303.466 748.422C302.923 737.909 292.128 721.423 299.866 712.492C303.113 708.745 307.679 707.397 312.165 705.768C329.338 699.533 335.272 689.642 335.841 671.778Z"/>
	<path fill="#8A9FCE" d="M398.468 708.222C411.683 707.795 425.023 708.174 438.25 708.159L513.606 708.075L578.701 708.04C590.55 708.01 602.521 707.621 614.36 708.021C616.683 708.099 619.457 708.232 621.571 709.244C623.286 710.065 624.501 711.821 625.063 713.596C626.901 719.4 627.275 726.354 628.308 732.415L635.629 774.732C640.894 804.922 646.316 835.03 651.086 865.303C652.304 873.033 654.515 880.704 655.427 888.451C655.68 890.604 655.924 893.37 654.701 895.298C653.513 897.169 651.328 897.782 649.34 898.406C607.319 899.017 565.184 898.169 523.149 898.15L467.25 898.24C456.762 898.257 446.156 898.551 435.68 898.046C432.527 897.895 429.599 897.62 426.735 896.16C422.704 894.105 420.8 891.424 419.407 887.174C417.73 882.056 417.338 876.159 416.56 870.827Q414.452 856.167 412.184 841.532L400.574 767.699C397.927 750.997 394.697 734.154 392.944 717.341C392.727 715.267 392.398 712.528 393.628 710.71C394.751 709.05 396.62 708.565 398.468 708.222Z"/>
	<path fill="#2A2626" d="M518.33 785.617C521.601 785.438 524.831 786.028 527.774 787.501Q528.567 787.903 529.318 788.379Q530.068 788.856 530.768 789.404Q531.469 789.952 532.112 790.566Q532.756 791.179 533.336 791.852Q533.917 792.526 534.429 793.253Q534.941 793.979 535.38 794.752Q535.819 795.526 536.18 796.338Q536.542 797.15 536.822 797.994C538.024 801.655 537.832 805.78 535.972 809.189C533.755 813.252 530.09 815.27 525.785 816.504C521.948 816.593 518.946 816.404 515.473 814.505Q514.699 814.079 513.971 813.578Q513.244 813.077 512.57 812.506Q511.896 811.935 511.282 811.3Q510.668 810.665 510.121 809.972Q509.573 809.278 509.098 808.534Q508.622 807.79 508.223 807.001Q507.824 806.213 507.505 805.389Q507.187 804.566 506.952 803.714C505.919 799.932 506.144 795.738 508.13 792.3C510.456 788.272 514.073 786.767 518.33 785.617Z"/>
	<path fill="white" d="M517.084 788.569C519.578 788.391 522.129 788.199 524.531 789.029Q525.287 789.285 526.013 789.616Q526.739 789.947 527.428 790.349Q528.117 790.751 528.762 791.22Q529.408 791.689 530.002 792.221Q530.597 792.753 531.135 793.342Q531.674 793.931 532.15 794.571Q532.626 795.211 533.036 795.896Q533.445 796.581 533.784 797.303C535.184 800.336 535.631 803.873 534.304 807.01C532.793 810.581 529.949 812.215 526.529 813.636C523.983 814.088 521.732 814.142 519.252 813.283Q518.546 813.033 517.869 812.715Q517.191 812.398 516.547 812.015Q515.903 811.633 515.3 811.19Q514.697 810.747 514.139 810.247Q513.582 809.747 513.076 809.196Q512.57 808.644 512.12 808.045Q511.67 807.447 511.281 806.808Q510.891 806.168 510.566 805.494C509.057 802.386 508.576 798.725 509.779 795.434C511.118 791.77 513.676 790.118 517.084 788.569Z"/>
	<path fill="#6375B7" d="M604.478 160.582L676.432 160.488C676.373 170.338 679.803 180.335 686.319 187.773C693.567 196.048 704.712 201.323 715.655 202.008Q716.674 202.076 717.694 202.094Q718.715 202.111 719.735 202.078Q720.756 202.044 721.773 201.96Q722.79 201.876 723.802 201.74Q724.814 201.605 725.818 201.42Q726.822 201.234 727.815 200.999Q728.809 200.763 729.789 200.479Q730.77 200.194 731.735 199.861Q732.699 199.527 733.647 199.146Q734.594 198.765 735.521 198.337Q736.447 197.909 737.352 197.435Q738.256 196.962 739.136 196.443Q740.015 195.925 740.868 195.364Q741.72 194.802 742.544 194.199Q743.367 193.595 744.159 192.951Q744.952 192.308 745.711 191.625C754.925 183.282 758.887 172.746 759.535 160.551L779.25 160.52L823.048 160.501L823.034 271.539L147.659 271.624Q148.168 216.245 147.721 160.866L157.526 160.75Q183.729 160.603 209.931 160.85C211.212 170.771 214.727 180.108 221.446 187.665C228.79 195.925 240.09 200.989 251.085 201.482C262.23 201.981 273.536 197.608 281.66 190.003C289.837 182.347 294.321 171.864 294.658 160.754C318.519 160.417 342.411 160.622 366.276 160.604C366.843 170.612 369.332 178.822 375.803 186.637C382.888 195.193 393.042 200.189 404.063 201.181C414.821 202.149 426.864 198.818 435.129 191.732C444.351 183.824 448.838 172.69 449.713 160.794Q485.73 160.497 521.747 160.744Q521.76 161.641 521.812 162.537Q521.864 163.433 521.953 164.326Q522.043 165.219 522.17 166.108Q522.297 166.996 522.462 167.878Q522.627 168.76 522.83 169.635Q523.032 170.509 523.271 171.374Q523.511 172.239 523.786 173.093Q524.062 173.947 524.374 174.789Q524.686 175.63 525.033 176.458Q525.38 177.285 525.763 178.097Q526.145 178.909 526.561 179.704Q526.977 180.5 527.427 181.276Q527.877 182.053 528.359 182.81Q528.841 183.567 529.355 184.302Q529.869 185.038 530.414 185.751Q530.958 186.465 531.533 187.154Q532.172 187.929 532.848 188.672Q533.525 189.414 534.237 190.122Q534.95 190.83 535.697 191.502Q536.444 192.173 537.223 192.806Q538.003 193.44 538.813 194.034Q539.623 194.627 540.462 195.18Q541.301 195.733 542.166 196.243Q543.031 196.753 543.921 197.219Q544.811 197.686 545.722 198.107Q546.634 198.528 547.566 198.904Q548.497 199.279 549.447 199.608Q550.396 199.937 551.36 200.217Q552.325 200.498 553.302 200.731Q554.279 200.963 555.266 201.146Q556.254 201.33 557.25 201.464Q558.245 201.598 559.246 201.682Q560.272 201.77 561.3 201.807Q562.329 201.844 563.358 201.831Q564.388 201.818 565.415 201.755Q566.442 201.691 567.465 201.577Q568.489 201.463 569.505 201.299Q570.521 201.136 571.528 200.922Q572.535 200.709 573.53 200.446Q574.526 200.183 575.507 199.872Q576.488 199.561 577.453 199.203Q578.418 198.844 579.364 198.438Q580.31 198.033 581.235 197.581Q582.16 197.13 583.062 196.633Q583.964 196.137 584.84 195.597Q585.717 195.057 586.566 194.475Q587.414 193.893 588.234 193.27Q589.053 192.647 589.841 191.984C599.432 183.823 603.436 172.83 604.478 160.582Z"/>
	<path fill="#D6E5F4" d="M74.5692 523.085C68.9158 515.018 62.4911 507.628 57.2484 499.243C39.7838 471.309 27.0709 443.724 16.915 412.512C14.2801 404.414 11.5336 396.313 9.59176 388.016C7.64655 379.705 6.41025 371.173 5.07022 362.745C1.54092 340.547 0.111047 319.362 2.69945 296.966Q2.98185 294.464 3.31423 291.969Q3.64662 289.473 4.02887 286.985Q4.41111 284.496 4.84306 282.016Q5.27502 279.536 5.7565 277.065Q6.23798 274.594 6.7688 272.133Q7.29963 269.672 7.87958 267.222Q8.45953 264.772 9.08837 262.334Q9.71722 259.897 10.3947 257.472Q11.0722 255.047 11.7981 252.636Q12.5239 250.226 13.2979 247.83Q14.0718 245.434 14.8935 243.055Q15.7152 240.675 16.5844 238.312Q17.4535 235.949 18.3698 233.605Q19.286 231.26 20.249 228.934Q21.212 226.607 22.2213 224.301Q23.2306 221.995 24.2859 219.709Q25.3412 217.423 26.4419 215.159Q27.5427 212.895 28.6886 210.653Q29.8344 208.411 31.0249 206.193Q32.2154 203.975 33.45 201.781Q34.6846 199.587 35.9628 197.418Q37.2411 195.249 38.5625 193.106Q39.8839 190.963 41.2479 188.847Q42.6119 186.731 44.0179 184.642Q45.424 182.554 46.8715 180.494Q48.3191 178.435 49.8076 176.404Q51.2961 174.374 52.8248 172.373Q54.3536 170.373 55.9221 168.404Q57.4907 166.435 59.0982 164.497Q60.7058 162.56 62.3519 160.655Q63.9979 158.75 65.6817 156.878Q67.3655 155.007 69.0864 153.169C80.3573 141.111 92.8557 130.338 105.78 120.097C134.516 97.3278 165.973 81.8114 200.463 69.882C207.631 67.403 214.816 64.7121 222.12 62.661C300.198 40.7339 390.277 43.196 461.047 86.0616Q472.374 92.9986 483.135 100.785Q493.896 108.571 504.027 117.161C510.606 122.826 516.579 129.535 523.476 134.77C525.494 136.301 526.818 136.937 529.349 137.204C529.532 137.224 529.715 137.238 529.899 137.255C525.553 144.176 523.223 150.049 521.84 158.07L449.663 158.115Q449.572 157.11 449.433 156.11Q449.293 155.111 449.104 154.119Q448.916 153.128 448.679 152.147Q448.442 151.166 448.158 150.197Q447.873 149.229 447.541 148.276Q447.21 147.323 446.832 146.387Q446.454 145.451 446.031 144.535Q445.607 143.619 445.14 142.724Q444.672 141.83 444.161 140.96Q443.65 140.089 443.097 139.245Q442.544 138.401 441.95 137.585Q441.357 136.768 440.724 135.982Q440.091 135.196 439.42 134.442Q438.75 133.688 438.043 132.967Q437.336 132.247 436.595 131.562Q435.854 130.877 435.08 130.229Q434.29 129.564 433.468 128.938Q432.646 128.313 431.793 127.73Q430.941 127.147 430.06 126.608Q429.18 126.068 428.273 125.573Q427.367 125.078 426.437 124.629Q425.507 124.18 424.555 123.778Q423.604 123.377 422.634 123.023Q421.663 122.669 420.676 122.365Q419.69 122.06 418.689 121.805Q417.688 121.55 416.675 121.346Q415.663 121.142 414.642 120.988Q413.62 120.835 412.593 120.733Q411.565 120.63 410.533 120.58Q409.502 120.529 408.469 120.531Q407.436 120.532 406.405 120.585Q405.373 120.638 404.346 120.742C392.77 121.823 382.883 127.088 375.529 136.083C370.133 142.683 367.074 149.669 366.021 158.097L294.72 158.113C292.369 145.652 287.061 135.71 276.403 128.398Q275.537 127.801 274.641 127.247Q273.746 126.694 272.825 126.186Q271.903 125.678 270.957 125.216Q270.012 124.754 269.044 124.341Q268.076 123.927 267.089 123.561Q266.102 123.196 265.099 122.881Q264.095 122.565 263.076 122.3Q262.058 122.035 261.027 121.821Q259.997 121.607 258.957 121.444Q257.917 121.282 256.871 121.171Q255.824 121.061 254.773 121.002Q253.723 120.944 252.67 120.938Q251.618 120.932 250.567 120.979Q249.515 121.026 248.467 121.124Q247.42 121.223 246.378 121.374Q245.337 121.525 244.304 121.728Q243.303 121.911 242.313 122.143Q241.322 122.375 240.344 122.655Q239.366 122.936 238.403 123.264Q237.44 123.593 236.495 123.968Q235.549 124.344 234.623 124.765Q233.697 125.187 232.793 125.653Q231.889 126.12 231.009 126.631Q230.129 127.142 229.276 127.695Q228.422 128.249 227.597 128.844Q226.771 129.438 225.976 130.073Q225.181 130.708 224.418 131.381Q223.656 132.055 222.927 132.765Q222.198 133.475 221.506 134.22Q220.813 134.965 220.158 135.743Q219.502 136.522 218.886 137.331Q218.27 138.141 217.695 138.98C213.807 144.71 211.507 151.309 210.651 158.163L145.337 158.167L145.481 534.068C130.824 519.958 104.667 501.099 85.5044 494.774C81.8622 504.203 78.0589 513.601 74.5692 523.085Z"/>
	<path fill="white" d="M147.49 273.966L823.134 273.976L823.06 645.483C805.572 638.372 791.684 638.272 773.123 638.728C770.878 625.286 770.456 611.285 768.651 597.716C774.679 594.674 780.336 588.772 784.277 583.372Q785.113 582.226 785.891 581.041Q786.67 579.855 787.389 578.633Q788.109 577.411 788.767 576.155Q789.426 574.898 790.021 573.611Q790.617 572.324 791.149 571.01Q791.681 569.695 792.148 568.356Q792.614 567.016 793.014 565.656Q793.415 564.295 793.747 562.916Q794.08 561.538 794.345 560.144Q794.61 558.751 794.806 557.346Q795.002 555.942 795.128 554.529Q795.255 553.117 795.312 551.699Q795.369 550.282 795.356 548.864Q795.344 547.446 795.261 546.03Q795.179 544.614 795.027 543.204Q794.875 541.794 794.654 540.393C791.616 522.01 780.163 509.468 765.546 498.985C760.379 496.027 755.062 493.875 749.452 491.902C738.121 489.71 729.421 489.744 718.174 492.367C711.171 495.61 703.928 499.21 697.857 504.024C694.04 507.05 690.648 510.703 686.641 513.48C682.191 516.564 677.082 518.1 672.777 521.567C664.856 530.517 660.539 538.988 661.291 551.2C661.978 562.35 666.73 571.508 673.241 580.341C678.086 584.62 683.037 588.774 688.875 591.646C691.859 606.079 697.713 623.865 710.918 632.212C713.623 633.921 719.844 635.34 721.422 637.609C721.572 639.083 721.538 639.196 720.828 640.5C717.066 643.22 711.511 643.547 707.074 644.748C690.248 650.297 679.077 657.37 666.04 669.284C627.625 668.481 589.033 669.376 550.603 669.387L335.856 669.385C334.689 653.351 329.782 639.127 326.281 623.628C324.289 614.805 323.38 605.782 322.422 596.801C308.531 601.264 295.514 606.486 282.624 613.328C282.351 605.371 282.493 597.358 282.447 589.393C275.349 589.312 195.314 588.864 193.332 589.573C193.045 589.676 192.831 589.92 192.581 590.093C193.36 590.753 193.509 590.819 194.565 590.882C203.397 591.409 212.665 590.713 221.556 590.695L281.011 590.724C281.02 598.557 280.702 606.575 281.501 614.368C269.061 622.505 258.868 632.138 249.76 643.828C247.266 630.257 245.017 616.086 235.848 605.144C230.783 599.101 223.653 594.66 215.648 594.125C207.814 593.602 202.111 596.987 196.442 601.89C184.731 576.516 167.506 555.346 147.668 535.939L147.49 273.966Z"/>
	<path fill="#8A9FCE" d="M749.452 491.902C754.432 490.92 759.999 491.915 765.101 491.733L765.546 498.985C760.379 496.027 755.062 493.875 749.452 491.902Z"/>
	<path fill="#8A9FCE" d="M672.61 492.442Q687.966 492.487 703.322 492.357C708.235 492.323 713.281 491.963 718.174 492.367C711.171 495.61 703.928 499.21 697.857 504.024C694.04 507.05 690.648 510.703 686.641 513.48C682.191 516.564 677.082 518.1 672.777 521.567C672.446 511.871 672.601 502.144 672.61 492.442Z"/>
	<path fill="#8A9FCE" d="M673.241 580.341C678.086 584.62 683.037 588.774 688.875 591.646C691.859 606.079 697.713 623.865 710.918 632.212C713.623 633.921 719.844 635.34 721.422 637.609C721.572 639.083 721.538 639.196 720.828 640.5C717.066 643.22 711.511 643.547 707.074 644.748C702.233 643.161 680.131 644.056 673.462 644.036L673.241 580.341Z"/>
	<path fill="#D6E5F4" d="M337.396 578.51L429.022 578.486L429.413 643.998C398.648 644.033 367.796 644.653 337.043 644.066Q336.845 611.286 337.396 578.51Z"/>
	<path fill="#D6E5F4" d="M337.981 491.966L429.028 491.996L429.217 558.391L337.652 558.412L337.981 491.966Z"/>
	<path fill="#D6E5F4" d="M561.033 578.061L653.492 577.845C653.072 600.055 653.344 622.248 653.433 644.462C638.689 644.661 623.9 644.355 609.151 644.316C593.211 644.275 577.247 644.494 561.31 644.179C560.592 622.178 561.019 600.074 561.033 578.061Z"/>
	<path fill="#D6E5F4" d="M561.052 491.635C591.615 491.18 622.242 491.743 652.812 491.935C652.996 513.87 653.569 536.056 652.773 557.977C622.21 558.595 591.549 558.402 560.976 558.473L561.052 491.635Z"/>
	<path fill="#D6E5F4" d="M449.09 578.207L542.395 577.961L541.95 644.104L448.967 644.467Q448.838 611.337 449.09 578.207Z"/>
	<path fill="#D6E5F4" d="M337.927 405.507C368.453 405.858 399.02 405.54 429.55 405.472L429.455 473.133C398.881 472.694 368.273 472.939 337.695 472.927L337.927 405.507Z"/>
	<path fill="#D6E5F4" d="M580.026 405.75C604.318 405.247 628.693 405.594 652.993 405.565L652.965 473.061L633.099 473.012L561.062 473.256L560.821 406.016L580.026 405.75Z"/>
	<path fill="#D6E5F4" d="M448.957 491.516C479.951 492.019 510.978 491.529 541.986 491.981Q541.771 525.235 542.05 558.485L449.349 558.566C448.65 550.323 448.99 541.817 448.981 533.547L448.957 491.516Z"/>
	<path fill="#D6E5F4" d="M672.869 405.508L765.527 405.986Q764.956 439.429 765.243 472.875C759.597 474.245 745.041 473.21 738.678 473.189L673.038 472.917C672.676 450.465 672.917 427.965 672.869 405.508Z"/>
	<path fill="#D6E5F4" d="M449.103 405.58L501.111 405.794C514.804 405.86 528.572 406.152 542.257 405.641L542.423 473.001L449.078 472.984L449.103 405.58Z"/>
	<path fill="#D6E5F4" d="M338.007 318.905C368.448 319.6 399.038 318.989 429.494 318.938L429.487 362.553C429.503 371.013 429.803 379.568 429.388 388.017Q402.21 387.982 375.033 388.231C362.617 388.31 350.085 388.593 337.68 388.032C337.326 365.024 337.871 341.92 338.007 318.905Z"/>
	<path fill="#D6E5F4" d="M672.887 319.038L765.164 319.011Q764.92 353.506 765.124 388C734.405 388.401 703.604 387.977 672.88 387.855L672.887 319.038Z"/>
	<path fill="#D6E5F4" d="M561.029 319.12L653.247 319.045C653.548 327.829 653.228 336.706 653.215 345.499Q653.309 366.75 653.11 388Q607.06 388.308 561.01 388.152C560.681 365.161 560.986 342.115 561.029 319.12Z"/>
	<path fill="#D6E5F4" d="M449.014 318.997C479.938 319.75 511.066 319.013 542.008 318.964L542.34 388.251C529.894 388.819 517.259 388.274 504.794 388.167Q476.916 388.136 449.041 387.735L449.014 318.997Z"/>
	<path fill="#F28A20" d="M281.656 300.763C283.937 301.435 290.63 309.417 292.664 311.528C289.01 315.37 285.595 319.417 281.873 323.202C282.452 330.734 282.218 338.416 282.227 345.968L282.245 381.245L203.75 381.215L190.908 381.258L190.755 306.359L276.179 306.086L281.656 300.763Z"/>
	<path fill="white" d="M227.873 307.75Q251.313 307.713 274.752 307.952C269.317 314.336 263.022 320.104 257.115 326.056C249.93 333.296 242.949 340.747 235.792 348.019C229.013 341.183 222.105 334.2 214.166 328.717C210.429 332.011 207.05 335.653 203.622 339.261C207.023 342.161 210.142 345.523 213.389 348.609Q224.611 359.302 236.034 369.779C244.08 362.51 251.499 353.936 259.223 346.25L280.553 324.423Q281.032 352.088 280.726 379.755L192.245 379.54L192.245 307.92Q210.06 307.93 227.873 307.75Z"/>
	<path fill="#F28A20" d="M282.699 492.611L292.984 502.902C289.355 506.149 285.885 509.426 282.534 512.966L282.474 570.245L201.75 570.169Q196.388 570.226 191.029 570.05C190.556 544.783 190.929 519.437 190.936 494.163C211.53 493.649 232.281 494.184 252.889 494.206C261.368 494.216 270.571 494.93 278.958 493.99C280.368 493.832 281.485 493.315 282.699 492.611Z"/>
	<path fill="white" d="M192.554 495.907L277.861 495.965C272.103 500.622 266.925 506.202 261.661 511.403L234.741 538.111C227.606 531.948 221.313 524.779 213.915 518.923L203.148 530.202C213.377 540.526 224.407 550.035 234.687 560.331L238.653 556.992C247.729 548.441 256.506 539.463 265.185 530.51C270.328 525.204 275.284 519.693 280.748 514.712Q281.011 541.637 280.926 568.564L192.557 568.513L192.554 495.907Z"/>
	<path fill="#F28A20" d="M282.014 394.912C285.579 397.239 290.357 403.177 293.615 406.345C289.712 410.015 285.809 413.663 282.107 417.539C282.673 437.349 282.203 457.248 282.481 477.075C256.43 477.821 230.192 477.225 204.125 477.14L190.776 477.133L190.944 398.095C204.219 397.774 217.55 397.99 230.829 397.993Q254.595 397.802 278.357 398.3L282.014 394.912Z"/>
	<path fill="white" d="M192.618 399.745Q234.618 399.424 276.615 399.999C263.538 415.062 248.505 428.931 234.734 443.408Q224.437 434.085 214.007 424.91C210.12 427.876 206.595 431.315 203.061 434.684C213.75 445.22 225.071 455.071 235.583 465.786L240.581 459.705C253.37 445.587 267.266 432.355 280.755 418.9L280.887 475.449L192.245 475.42C192.23 450.236 191.698 424.908 192.618 399.745Z"/>
</svg>
